<?xml version="1.0" encoding="UTF-8" standalone="no"?>
<!-- Creator: CorelDRAW X7 -->

<svg
   xml:space="preserve"
   width="33in"
   height="33in"
   version="1.1"
   shape-rendering="geometricPrecision"
   text-rendering="geometricPrecision"
   image-rendering="optimizeQuality"
   fill-rule="evenodd"
   clip-rule="evenodd"
   viewBox="0 0 33000 33000"
   id="svg24"
   sodipodi:docname="ICON &amp; TEXT LOGO BLACK BACKGROUND SVG.svg"
   inkscape:version="1.3 (0e150ed, 2023-07-21)"
   inkscape:export-filename="ICON &amp; TEXT LOGO BLACK BACKGROUND NEU.png"
   inkscape:export-xdpi="96"
   inkscape:export-ydpi="96"
   xmlns:inkscape="http://www.inkscape.org/namespaces/inkscape"
   xmlns:sodipodi="http://sodipodi.sourceforge.net/DTD/sodipodi-0.dtd"
   xmlns="http://www.w3.org/2000/svg"
   xmlns:svg="http://www.w3.org/2000/svg"><sodipodi:namedview
   id="namedview24"
   pagecolor="#505050"
   bordercolor="#eeeeee"
   borderopacity="1"
   inkscape:showpageshadow="0"
   inkscape:pageopacity="0"
   inkscape:pagecheckerboard="0"
   inkscape:deskcolor="#505050"
   inkscape:document-units="in"
   inkscape:zoom="0.2149196"
   inkscape:cx="1672.7185"
   inkscape:cy="1498.2347"
   inkscape:window-width="1472"
   inkscape:window-height="891"
   inkscape:window-x="0"
   inkscape:window-y="37"
   inkscape:window-maximized="1"
   inkscape:current-layer="g16" />&#10; <defs
   id="defs7">&#10;     <linearGradient
   id="id0"
   gradientUnits="userSpaceOnUse"
   x1="15665.4"
   y1="7423.54"
   x2="18812"
   y2="8877.7">&#10;      <stop
   offset="0"
   stop-opacity="1"
   stop-color="#285D57"
   id="stop1" />&#10;      <stop
   offset="0.831373"
   stop-opacity="1"
   stop-color="#559D92"
   id="stop2" />&#10;      <stop
   offset="1"
   stop-opacity="1"
   stop-color="#285D57"
   id="stop3" />&#10;     </linearGradient>&#10;     <linearGradient
   id="id1"
   gradientUnits="userSpaceOnUse"
   x1="12216.7"
   y1="10928.2"
   x2="14300.5"
   y2="8381.7">&#10;      <stop
   offset="0"
   stop-opacity="1"
   stop-color="#559D92"
   id="stop4" />&#10;      <stop
   offset="1"
   stop-opacity="1"
   stop-color="#285D57"
   id="stop5" />&#10;     </linearGradient>&#10;     <linearGradient
   id="id2"
   gradientUnits="userSpaceOnUse"
   x1="15634.7"
   y1="12052"
   x2="17365.4"
   y2="15579.2">&#10;      <stop
   offset="0"
   stop-opacity="1"
   stop-color="#559D92"
   id="stop6" />&#10;      <stop
   offset="1"
   stop-opacity="1"
   stop-color="#23544E"
   id="stop7" />&#10;     </linearGradient>&#10; </defs>&#10; <g
   id="Layer_x0020_1"
   inkscape:label="Layer 1">&#10;  <metadata
   id="CorelCorpID_0Corel-Layer" />&#10;  <g
   id="_1440746729376">&#10;   <g
   id="g16">&#10;    <path
   fill="url(#id0)"
   d="M14439 7417c642,-303 1348,-464 2074,-464 637,0 1266,124 1854,368 589,244 1125,601 1576,1052l151 152 -824 824 -151 -152c-342,-342 -748,-616 -1195,-801 -448,-185 -926,-278 -1411,-278 -584,0 -1150,137 -1659,394 -14,7 -27,14 -40,20l-431 -1088c19,-9 38,-18 56,-27z"
   id="path7" />&#10;    <path
   fill="url(#id1)"
   d="M11664 11822l-1 -19c0,-1291 509,-2518 1421,-3430 399,-399 857,-720 1355,-956l415 1095c-346,174 -665,405 -946,685 -645,645 -1024,1496 -1073,2401 -2,20 -3,41 -3,61l-1168 234c0,-24 0,-48 0,-71z"
   id="path8" />&#10;    <path
   fill="url(#id2)"
   d="M19506 15619c-347,272 -731,496 -1139,665 -588,244 -1217,369 -1854,369 -1090,0 -2138,-363 -2992,-1034l-1007 1007 -824 -824 1007 -1007c-667,-849 -1029,-1889 -1033,-2973l1171 -224c-4,68 -6,136 -6,205 0,781 244,1533 700,2160l2984 -2984 412 412 4412 4411 -824 824 -1007 -1007zm-831 -831l-2162 -2161 -2160 2160c627,456 1379,700 2160,700 485,0 963,-92 1411,-278 266,-110 518,-252 751,-421z"
   id="path9" />&#10;    <polygon
   fill="#B0D8FF"
   points="16452,11040 21276,15863 21337,15802 16925,11391 16513,10979 "
   id="polygon9"
   style="fill:#559d92;fill-opacity:1" />&#10;    <path
   fill="#104A40"
   d="M16513 12627l2162 2161c17,-13 49,-41 65,-54l-2167 -2167 -60 60zm2993 2992l1007 1007 62 -62 -1005 -1005c-15,13 -48,45 -64,60z"
   id="path10" />&#10;    <path
   fill="#B0D8FF"
   d="M16513 15487c-781,0 -1533,-244 -2160,-700l-45 45c632,447 1332,695 2108,708 558,9 1196,-123 1695,-415 -61,30 -124,58 -187,84 -448,186 -926,278 -1411,278z"
   id="path11"
   style="fill:#559d92;fill-opacity:1" />&#10;    <path
   fill="#B0D8FF"
   d="M12946 12727c47,412 227,854 530,1289l53 -53c-272,-374 -469,-793 -583,-1236z"
   id="path12"
   style="fill:#559d92;fill-opacity:1" />&#10;    <path
   fill="#104A40"
   d="M16329 16569c-1023,-53 -1940,-374 -2747,-1011l-61 61c854,671 1902,1034 2992,1034 494,0 983,-75 1452,-223 -601,150 -1129,166 -1636,139z"
   id="path13" />&#10;    <polygon
   fill="#8DBFF0"
   points="12514,16626 12576,16564 11752,15740 11690,15802 "
   id="polygon13"
   style="fill:#104a40;fill-opacity:1" />&#10;    <path
   fill="#8DBFF0"
   d="M12768 14724c-639,-849 -1017,-1905 -1017,-3049 0,-747 161,-1456 450,-2095 -350,680 -538,1440 -538,2223 0,1090 363,2138 1034,2992l71 -71z"
   id="path14"
   style="fill:#104a40;fill-opacity:1" />&#10;    <path
   fill="#8DBFF0"
   d="M16343 7004c1452,0 2761,609 3687,1585l64 -64 -151 -152c-451,-451 -987,-808 -1576,-1052 -588,-244 -1217,-368 -1854,-368 -447,0 -887,61 -1309,179 366,-84 747,-128 1139,-128z"
   id="path15"
   style="fill:#559d92;fill-opacity:1" />&#10;    <path
   fill="#104A40"
   d="M19367 9249c-10,-11 -20,-22 -30,-33 10,11 20,22 30,33zm-32 -36c-685,-738 -1664,-1200 -2751,-1200 -1974,0 -3592,1525 -3741,3461 0,0 0,0 0,0 76,-859 450,-1662 1065,-2277 693,-693 1625,-1079 2605,-1079 485,0 963,93 1411,278 447,185 853,459 1195,801l151 152 99 -99 661 -661c-15,-15 -31,-31 -46,-47l-667 652 18 19z"
   id="path16" />&#10;   </g>&#10;   <g
   id="g24">&#10;    <path
   fill="white"
   d="M22296 25396l-632 0 0 -186 856 0 0 8c0,468 -251,829 -747,829 -457,0 -786,-353 -786,-806 0,-465 337,-805 800,-805 248,0 449,97 604,289l5 7 -164 105 -5 -6c-104,-133 -271,-209 -440,-209 -353,0 -586,274 -586,619 0,342 236,619 586,619 288,0 467,-192 509,-464zm1365 -202l0 823 -188 0 0 -765c0,-135 -53,-224 -198,-224 -109,0 -226,80 -286,169l0 820 -188 0 0 -1130 188 0 0 147c79,-100 233,-175 355,-175 140,0 257,66 301,198 78,-115 234,-198 372,-198 221,0 319,131 319,345l0 813 -188 0 0 -765c0,-134 -55,-224 -198,-224 -109,0 -230,76 -289,166zm1306 -153c90,-113 222,-182 369,-182 338,0 504,282 504,594 0,314 -166,592 -504,592 -144,0 -280,-68 -369,-180l0 152 -188 0 0 -1555 188 0 0 579zm2351 269l-887 0 0 707 -206 0 0 -1555 206 0 0 663 887 0 0 -663 207 0 0 1555 -207 0 0 -707zm-2351 395c66,105 206,171 327,171 240,0 351,-205 351,-423 0,-217 -111,-425 -351,-425 -122,0 -261,71 -327,175l0 502z"
   id="path17" />&#10;    <g
   id="g23">&#10;     <path
   fill="white"
   d="M8385 21075l-78 -1172 -150 0 -6 28c-13,59 -37,118 -79,162 -24,23 -52,35 -86,35 -32,0 -99,-34 -126,-48 -222,-113 -458,-177 -707,-177 -303,0 -586,75 -848,229 -264,155 -465,373 -609,644 -150,282 -221,588 -221,908 0,391 104,752 337,1067 313,426 750,612 1272,612 278,0 549,-58 788,-205 249,-154 437,-392 579,-644l17 -29 -131 -86 -20 27c-131,184 -317,414 -516,525 -166,93 -349,130 -537,130 -223,0 -434,-50 -624,-166 -188,-115 -321,-278 -408,-479 -102,-234 -138,-494 -138,-748 0,-292 33,-606 146,-878 83,-202 207,-387 394,-506 171,-108 360,-158 561,-158 235,0 450,63 635,210 211,167 334,442 409,693l8 26 138 0z"
   id="path18" />&#10;     <path
   fill="white"
   d="M10597 20781l493 1181 -999 0 506 -1181zm68 -878l-1149 2690c-57,133 -156,354 -262,454 -49,46 -180,73 -244,84l-29 5 0 154 1093 0 0 -157 -33 -3c-70,-5 -228,-20 -285,-65 -33,-26 -57,-59 -57,-102 0,-78 48,-197 79,-268l207 -486 1208 0 183 439c34,84 92,228 92,319 0,45 -19,79 -54,107 -53,43 -176,53 -241,56l-34 2 0 158 1349 0 0 -158 -33 -2c-103,-6 -210,-30 -289,-99 -97,-85 -188,-292 -237,-409l-1136 -2719 -128 0z"
   id="path19" />&#10;     <path
   fill="white"
   d="M13430 20451l0 2241c0,74 -2,266 -46,329 -62,87 -168,109 -269,109l-149 0 0 160 1210 0 0 -160 -151 0c-92,0 -193,-18 -258,-88 -52,-61 -55,-274 -55,-350l0 -1897 2080 2547 139 0 0 -2767c0,-75 3,-266 47,-329 61,-88 166,-110 266,-110l152 0 0 -159 -1211 0 0 159 150 0c91,0 193,17 256,88 55,62 59,273 59,351l0 1771 -1933 -2369 -924 0 0 159 36 0c61,0 140,2 200,20 66,22 145,52 202,93 68,49 143,136 199,202z"
   id="path20" />&#10;     <path
   fill="white"
   d="M18551 20146c280,0 519,91 696,312 262,326 319,814 319,1218 0,361 -48,813 -288,1101 -189,227 -429,343 -725,343 -269,0 -490,-100 -658,-311 -263,-331 -330,-789 -330,-1199 0,-394 63,-840 318,-1155 172,-211 397,-309 668,-309zm-1069 190c-371,344 -536,782 -536,1285 0,475 133,908 464,1255 312,326 697,487 1148,487 455,0 838,-170 1152,-498 331,-348 475,-773 475,-1251 0,-468 -146,-882 -472,-1220 -305,-317 -675,-491 -1117,-491 -427,0 -801,142 -1114,433z"
   id="path21" />&#10;     <path
   fill="white"
   d="M21254 20550l1221 2813 135 0 1135 -2777c49,-120 118,-259 215,-348 63,-59 159,-87 242,-102l29 -6 0 -153 -1063 0 0 153 30 6c13,2 26,4 40,7l1 0c69,11 163,33 216,81 29,27 57,63 57,105 0,100 -72,280 -110,372l-733 1795 -790 -1820c-41,-93 -107,-255 -107,-358 0,-47 18,-84 54,-113 54,-45 205,-62 272,-69l33 -3 0 -156 -1393 0 0 156 32 3c72,6 157,19 222,50 54,26 99,62 136,108 17,22 35,58 47,83 28,57 54,115 79,173z"
   id="path22" />&#10;     <path
   fill="white"
   d="M25634 20781l493 1181 -999 0 506 -1181zm67 -878l-1149 2690c-57,133 -155,354 -261,454 -49,46 -181,73 -244,84l-30 5 0 154 1093 0 0 -157 -33 -3c-70,-5 -227,-20 -284,-65 -33,-26 -58,-59 -58,-102 0,-78 49,-197 79,-268l207 -486 1208 0 183 439c35,84 93,228 93,319 0,45 -20,79 -55,107 -53,43 -175,53 -241,56l-33 2 0 158 1349 0 0 -158 -34 -2c-102,-6 -209,-30 -288,-99 -97,-85 -189,-292 -238,-409l-1136 -2719 -128 0z"
   id="path23" />&#10;    </g>&#10;   </g>&#10;  </g>&#10; </g>&#10;</svg>
