<?xml version="1.0" encoding="utf-8"?>
<!-- Generator: Adobe Illustrator 27.5.0, SVG Export Plug-In . SVG Version: 6.00 Build 0)  -->
<svg version="1.1" id="Layer_1" xmlns="http://www.w3.org/2000/svg" xmlns:xlink="http://www.w3.org/1999/xlink" x="0px" y="0px"
	 viewBox="0 0 2000 835" style="enable-background:new 0 0 2000 835;" xml:space="preserve">
<style type="text/css">
	.st0{fill:#FFFFFF;}
	.st1{fill:#F68C21;}
</style>
<g>
	<path class="st0" d="M486.7,339.2v-89.6H90.8v89.6h148.1v332.5c0,40-32.4,72.4-72.4,72.4s-72.4-32.4-72.4-72.4v-43.9H0v35
		c0,94.3,76.5,170.8,170.8,170.8l0,0c94.3,0,170.8-76.5,170.8-170.8V339.2H486.7z"/>
	<polygon class="st0" points="764.3,569 602.2,569 699.2,339.2 764.3,339.2 764.3,249.6 625.2,249.6 381.7,826.1 493.6,826.1 
		564.3,658.6 764.3,658.6 764.3,826.1 867,826.1 867,339.2 764.3,339.2 	"/>
	<polygon class="st0" points="1326.1,719.3 1146.6,249.6 974.8,249.6 974.8,826.1 1077.5,826.1 1077.5,356 1257.1,826.1 
		1428.8,826.1 1428.8,249.6 1326.1,249.6 	"/>
	<path class="st0" d="M1743.1,576.7v-92.1c-89.9,0-162.7-72.8-162.7-162.7l0-1.3h-94.2c0,141.5,114.8,256.3,256.3,256.2H1743.1z"/>
	<path class="st0" d="M1846.8,178.9l90-45.6V1.3h-356.4v89.6h258.5l-173,83.6l0,0h0v75.1h77.2l0,0c89.9,0,162.7,72.8,162.7,162.7
		v2.5c0,89.9-72.8,162.7-162.7,162.7l0,0v92.1l0.9,0c141.4-0.1,256-114.8,256-256.2l0,0C2000,308.7,1937,218.6,1846.8,178.9z"/>
	<rect x="1580.4" y="735.3" class="st1" width="356.4" height="89.6"/>
</g>
</svg>
