<svg width="156" height="25" viewBox="0 0 156 25" fill="none" xmlns="http://www.w3.org/2000/svg">
<g clip-path="url(#clip0_238_526)">
<path d="M152.061 1.92095C152.095 1.42372 152.317 0.957989 152.683 0.617851C153.048 0.277713 153.53 0.0885315 154.03 0.0885315C154.53 0.0885315 155.012 0.277713 155.378 0.617851C155.743 0.957989 155.966 1.42372 156 1.92095C156.018 2.18999 155.981 2.45995 155.891 2.71407C155.8 2.96819 155.658 3.20104 155.473 3.39815C155.289 3.59526 155.065 3.75242 154.817 3.85987C154.569 3.96733 154.301 4.02278 154.03 4.02278C153.76 4.02278 153.492 3.96733 153.244 3.85987C152.995 3.75242 152.772 3.59526 152.587 3.39815C152.402 3.20104 152.26 2.96819 152.17 2.71407C152.079 2.45995 152.042 2.18999 152.061 1.92095Z" fill="#00FA82"/>
<path d="M0 3.98042H6.97968C10.8635 3.98042 13.5237 6.49243 13.5237 10.3251C13.5505 11.1826 13.3985 12.0363 13.0773 12.8324C12.7562 13.6284 12.2729 14.3495 11.658 14.95C11.0431 15.5506 10.3098 16.0175 9.50459 16.3215C8.69936 16.6254 7.83963 16.7597 6.97968 16.7159H3.02175V24.6214H0V3.98042ZM6.80357 14.01C7.29255 14.0288 7.78008 13.9455 8.2349 13.7657C8.68973 13.5858 9.10183 13.3132 9.44478 12.9654C9.78773 12.6177 10.054 12.2023 10.2265 11.7461C10.3989 11.2898 10.4738 10.8026 10.4463 10.3158C10.4721 9.83374 10.3952 9.35166 10.2209 8.90121C10.0465 8.45076 9.77858 8.0421 9.43464 7.70203C9.09069 7.36196 8.6785 7.09815 8.22507 6.92789C7.77165 6.75763 7.28723 6.68477 6.80357 6.71408H3.02175V14.0007L6.80357 14.01Z" fill="#031021"/>
<path d="M17.9822 9.23531H20.8834V11.6457H21.0966C21.4501 10.8382 22.0279 10.1483 22.7621 9.65743C23.4962 9.16651 24.356 8.89507 25.2399 8.87514H26.3337V11.7935H24.8506C22.1904 11.7935 20.9112 13.8253 20.9112 16.7436V24.6491H17.9822V9.23531Z" fill="#031021"/>
<path d="M29.6613 16.9283C29.6306 15.8588 29.8194 14.7943 30.2161 13.8C30.6128 12.8058 31.2091 11.9027 31.9684 11.1461C32.7278 10.3896 33.6342 9.79544 34.6321 9.40017C35.63 9.0049 36.6984 8.81681 37.7718 8.84743C38.8445 8.81809 39.9119 9.00713 40.9087 9.40297C41.9055 9.79881 42.8108 10.3931 43.5691 11.1496C44.3275 11.906 44.9229 12.8086 45.3191 13.8023C45.7152 14.7959 45.9037 15.8596 45.8731 16.9283C45.9 17.9988 45.7076 19.0634 45.3077 20.0573C44.9078 21.0512 44.3087 21.9534 43.547 22.7088C42.7853 23.4642 41.8771 24.057 40.8778 24.451C39.8784 24.8449 38.809 25.0317 37.7348 25C36.6638 25.0308 35.5978 24.8429 34.6025 24.4478C33.6071 24.0527 32.7035 23.4588 31.9472 22.7026C31.1909 21.9465 30.5979 21.0441 30.2048 20.0511C29.8117 19.058 29.6267 17.9953 29.6613 16.9283ZM42.8884 16.9283C42.9631 16.2167 42.8869 15.4974 42.6647 14.817C42.4426 14.1366 42.0794 13.5104 41.5987 12.9788C41.1181 12.4472 40.5307 12.0221 39.8746 11.7312C39.2186 11.4403 38.5085 11.2899 37.7904 11.2899C37.0723 11.2899 36.3622 11.4403 35.7061 11.7312C35.05 12.0221 34.4627 12.4472 33.982 12.9788C33.5014 13.5104 33.1382 14.1366 32.916 14.817C32.6938 15.4974 32.6176 16.2167 32.6923 16.9283C32.6176 17.6399 32.6938 18.3592 32.916 19.0396C33.1382 19.72 33.5014 20.3463 33.982 20.8779C34.4627 21.4095 35.05 21.8345 35.7061 22.1254C36.3622 22.4164 37.0723 22.5667 37.7904 22.5667C38.5085 22.5667 39.2186 22.4164 39.8746 22.1254C40.5307 21.8345 41.1181 21.4095 41.5987 20.8779C42.0794 20.3463 42.4426 19.72 42.6647 19.0396C42.8869 18.3592 42.9631 17.6399 42.8884 16.9283Z" fill="#031021"/>
<path d="M50.1556 16.9283C50.1178 15.8718 50.2959 14.8187 50.679 13.8329C51.0621 12.847 51.6422 11.949 52.3842 11.1933C53.1262 10.4376 54.0145 9.84 54.9954 9.43674C55.9762 9.03349 57.029 8.833 58.0899 8.84743C59.7906 8.76215 61.4669 9.2777 62.8235 10.3032C64.18 11.3287 65.1297 12.7984 65.5053 14.4533L62.7245 15.1274C62.5302 14.0994 61.9728 13.1746 61.1532 12.5207C60.3337 11.8668 59.3062 11.5269 58.2568 11.5626C55.2629 11.5626 53.2514 13.9176 53.2514 16.9283C53.2514 19.939 55.3555 22.2663 58.2846 22.2663C59.3283 22.3139 60.3542 21.9854 61.1747 21.3409C61.9951 20.6965 62.5552 19.7792 62.7523 18.7569L65.5887 19.4034C65.208 21.0548 64.2566 22.5202 62.901 23.5433C61.5454 24.5664 59.872 25.082 58.1734 25C57.1048 25.0312 56.0413 24.8432 55.0488 24.4475C54.0563 24.0518 53.1561 23.457 52.4042 22.7C51.6522 21.943 51.0645 21.0399 50.6777 20.047C50.2909 19.0541 50.1131 17.9926 50.1556 16.9283Z" fill="#031021"/>
<path d="M70.6772 19.1079V9.23532H73.6063V18.6092C73.586 19.083 73.6632 19.5559 73.8333 19.9988C74.0035 20.4417 74.2628 20.8451 74.5955 21.1843C74.9281 21.5235 75.3269 21.7912 75.7674 21.971C76.2078 22.1507 76.6805 22.2387 77.1564 22.2294C77.6684 22.2371 78.1767 22.1414 78.6505 21.948C79.1244 21.7546 79.554 21.4676 79.9135 21.1043C80.273 20.7409 80.5549 20.3088 80.7421 19.8339C80.9294 19.3591 81.0182 18.8513 81.0031 18.3413V9.23532H83.9322V24.6214H81.0031V22.6173H80.7621C80.3214 23.3878 79.6725 24.0196 78.8893 24.4409C78.106 24.8621 77.2198 25.0558 76.3314 25C72.837 25 70.6772 22.4141 70.6772 19.1079Z" fill="#031021"/>
<path d="M90.5413 9.23531H93.4425V11.6457H93.6186C93.9721 10.8382 94.5499 10.1483 95.2841 9.65743C96.0182 9.16651 96.878 8.89507 97.7619 8.87514H98.8557V11.7935H97.3819C94.7216 11.7935 93.4425 13.8253 93.4425 16.7436V24.6491H90.5413V9.23531Z" fill="#031021"/>
<path d="M101.961 16.956C101.961 12.089 105.418 8.84743 109.561 8.84743C114.27 8.84743 116.977 12.1814 116.977 16.7806V17.7041H104.927C104.927 20.7056 106.781 22.4788 109.654 22.4788C110.596 22.5243 111.527 22.2558 112.299 21.7156C113.071 21.1754 113.641 20.3943 113.918 19.4957L116.699 20.1792C116.232 21.6455 115.29 22.9158 114.02 23.7902C112.749 24.6646 111.223 25.0934 109.682 25.0092C104.982 25 101.961 21.6753 101.961 16.956ZM114.011 15.4784C113.996 14.9159 113.867 14.3622 113.632 13.8504C113.397 13.3386 113.061 12.8793 112.644 12.5C112.227 12.1206 111.737 11.829 111.204 11.6425C110.672 11.4561 110.106 11.3786 109.543 11.4148C108.409 11.3938 107.31 11.8013 106.465 12.5551C105.621 13.309 105.095 14.3534 104.992 15.4784H114.011Z" fill="#031021"/>
<path d="M135.747 3.98042H139.964L147.38 24.6214H144.21L142.55 20.0037H133.022L131.372 24.6214H128.257L135.747 3.98042ZM141.577 17.2239L137.869 6.84337H137.638L133.93 17.2239H141.577Z" fill="#031021"/>
<path d="M152.524 11.7658H149.743V9.23532H155.49V24.6214H152.561L152.524 11.7658Z" fill="#031021"/>
</g>
<defs>
<clipPath id="clip0_238_526">
<rect width="156" height="25" fill="white"/>
</clipPath>
</defs>
</svg>
